<?xml version="1.0" encoding="utf-8"?>
<!-- Generator: Adobe Illustrator 28.3.0, SVG Export Plug-In . SVG Version: 6.00 Build 0)  -->
<svg version="1.1" id="Camada_1" xmlns="http://www.w3.org/2000/svg" xmlns:xlink="http://www.w3.org/1999/xlink" x="0px" y="0px"
	 viewBox="0 0 100 100" style="enable-background:new 0 0 100 100;" xml:space="preserve">
<style type="text/css">
	.st0{clip-path:url(#SVGID_00000022549025826474743310000000442295594939161779_);}
	.st1{fill:none;stroke:#FFFFFF;stroke-width:4;stroke-linecap:round;stroke-linejoin:round;}
</style>
<g>
	<defs>
		<rect id="SVGID_1_" width="100" height="100"/>
	</defs>
	<clipPath id="SVGID_00000110462976343712775870000003506713155945759676_">
		<use xlink:href="#SVGID_1_"  style="overflow:visible;"/>
	</clipPath>
	<g style="clip-path:url(#SVGID_00000110462976343712775870000003506713155945759676_);">
		<path class="st1" d="M4.17,4.17h16.67L32,59.96c0.38,1.92,1.42,3.64,2.95,4.87c1.52,1.23,3.43,1.88,5.39,1.84h40.5
			c1.96,0.04,3.86-0.61,5.39-1.84c1.52-1.23,2.57-2.95,2.95-4.87L95.83,25H25 M41.67,87.5c0,2.3-1.87,4.17-4.17,4.17
			c-2.3,0-4.17-1.87-4.17-4.17s1.87-4.17,4.17-4.17C39.8,83.33,41.67,85.2,41.67,87.5z M87.5,87.5c0,2.3-1.87,4.17-4.17,4.17
			s-4.17-1.87-4.17-4.17s1.87-4.17,4.17-4.17S87.5,85.2,87.5,87.5z"/>
	</g>
</g>
</svg>
