<?xml version="1.0" encoding="utf-8"?>
<!-- Generator: Adobe Illustrator 28.3.0, SVG Export Plug-In . SVG Version: 6.00 Build 0)  -->
<svg version="1.1" id="Camada_1" xmlns="http://www.w3.org/2000/svg" xmlns:xlink="http://www.w3.org/1999/xlink" x="0px" y="0px"
	 viewBox="0 0 1920 741" style="enable-background:new 0 0 1920 741;" xml:space="preserve">
<style type="text/css">
	.st0{fill:#5C7BE1;}
	.st1{fill:#FFFFFF;}
	.st2{fill:#313131;}
</style>
<g>
	<path d="M1371.09,268.37L1371.09,268.37c-0.14-0.17,1.27-1.17,1.8-1.96c5.56-8.43,3.14-5.65,6.68-9.29c1.53-1.56,4.05-4.5,4-4.55
		l3.38-2.2c0,0,0.26-0.17,0.41-0.07l1.39,0.98c2.73,1.92,5.68,3.52,8.77,4.79l1.6,0.67c16.62,4.24,28.43,2.42,40.86-4.57l7.06-4.6
		c10.3-8.17,19.66-22.2,20.62-37l0.41-2.87c0.81-5.8,0.79-11.66-0.24-17.43c0-0.07-0.02-0.12-0.02-0.19
		c-0.43-2.32-1.03-4.62-1.75-6.85l-2.37-7.3l-4.12,4.02c-1.84,1.32-9.08,5.15-11.28,5.6c-0.24,0.05-4.5,0.14-7.88,0.96
		c-1.1,0.26-2.23,0.48-3.35,0.6l-21.96,2.08c-0.53,0.05-1.08,0.12-1.6,0.22c-9.17,1.68-15.71,3.69-23.3,9.03
		c-3.38,2.37-8.17,7.28-9.82,11.09l0.1-0.67l-2.01,3.64c-4.02,14.75-2.2,11.26-1.03,21.67l0.31,1.34l10.18-6.3
		c4.98-2.59,10.2-4.72,15.59-6.35l14.51-3.86l13.82-4.14c4.12-1.58,9.46-4.6,12.88-7.38c0.89-0.72,1.72-1.51,2.51-2.35l6.23-7.35
		l-1.53,3.88c-6.49,7.97-5.68,9.44-22.92,18.99l-16.84,6.56l-12.67,5.17c-3.11,1.08-6.15,2.39-9.08,3.98
		c-4.19,2.28-8.19,4.93-11.9,7.95c-1.25,1.01-5.6,4.79-7.4,6.66l0,0c-1.6,1.7-2.99,3.54-4.31,5.48l-1.56,1.48l-1.51,1.15
		c-0.62,4.67,3.62,7.88,7.06,9.27h0.29L1371.09,268.37z"/>
	<path class="st0" d="M1373.68,259.41L1373.68,259.41c-0.14-0.17,1.25-1.22,1.72-2.01c5.22-8.62,2.92-5.77,6.32-9.53
		c1.46-1.63,3.88-4.65,3.83-4.69l3.31-2.32c0,0,0.26-0.17,0.41-0.1l1.44,0.93c2.8,1.82,5.8,3.3,8.93,4.48l1.63,0.6
		c16.76,3.62,28.5,1.37,40.67-6.11l6.87-4.84c9.99-8.55,18.82-22.9,19.23-37.74l0.29-2.9c0.6-5.82,0.36-11.69-0.89-17.41
		c-0.02-0.07-0.02-0.12-0.05-0.19c-0.5-2.3-1.2-4.57-2.01-6.78l-2.63-7.23l-3.95,4.19c-1.77,1.39-8.86,5.48-11.06,6.04
		c-0.22,0.05-4.5,0.31-7.86,1.27c-1.1,0.31-2.2,0.57-3.33,0.72l-21.87,2.9c-0.53,0.07-1.08,0.17-1.6,0.29
		c-9.12,2.01-15.57,4.26-22.94,9.89c-3.28,2.51-7.9,7.59-9.39,11.42l0.07-0.67l-1.89,3.71c-3.47,14.87-1.77,11.33-0.22,21.7
		l0.36,1.32l9.94-6.66c4.89-2.78,10.01-5.1,15.33-6.92l14.37-4.38l13.65-4.65c4.07-1.72,9.27-4.96,12.6-7.83
		c0.86-0.74,1.65-1.58,2.42-2.44l5.96-7.59l-1.39,3.93c-6.2,8.21-5.32,9.63-22.2,19.83l-16.6,7.18l-12.48,5.63
		c-3.09,1.2-6.08,2.61-8.91,4.31c-4.12,2.42-8,5.24-11.59,8.38c-1.2,1.05-5.44,4.98-7.14,6.92l0,0c-1.56,1.75-2.85,3.66-4.12,5.63
		l-1.51,1.56l-1.46,1.22c-0.46,4.69,3.9,7.74,7.42,8.98h0.31L1373.68,259.41z"/>
	<g>
		<g>
			<path class="st1" d="M795.58,473.63l35.64-42.58c19.52,16.98,44.83,28.67,67.42,28.67c25.89,0,38.58-10.2,38.58-26.49
				c0-17.27-15.59-22.82-39.59-32.69l-35.66-15.21c-28.43-11.57-55.39-34.92-55.39-74.82c0-45.48,40.62-81.79,97.76-81.79
				c31.61,0,64.66,12.45,88.28,35.97l-31.33,39.11c-18.08-13.87-35.28-21.51-56.97-21.51c-21.7,0-35.01,8.91-35.01,24.6
				c0,16.84,17.96,22.94,41.91,32.47l34.97,14.18c33.5,13.56,54.44,35.88,54.44,74.65c0,45.57-38.01,85.07-103.39,85.07
				C861.51,513.32,823.58,499.78,795.58,473.63L795.58,473.63L795.58,473.63z"/>
			<path class="st1" d="M1032.67,450.33c0-44.02,35.01-67.85,117.64-76.56c-1.25-18.27-10.35-30.2-33.03-30.2
				c-17.53,0-35.01,7.38-55.27,18.87L1040,321.8c26.51-16.21,56.38-27.49,89.23-27.49c53.41,0,82.98,30.51,82.98,94.53v119.43
				h-50.51l-4.45-21.39h-1.53c-17.58,15.45-37.29,26.44-60.78,26.44C1056.84,513.32,1032.67,485.51,1032.67,450.33L1032.67,450.33
				L1032.67,450.33z M1150.31,447.58v-36.5c-44.02,5.94-58.39,18.51-58.39,34.32c0,13.46,9.27,20.05,23.97,20.05
				S1139.32,458.52,1150.31,447.58z"/>
			<path class="st1" d="M1262.2,429.04V299.36h61.91v121.76c0,30.06,8.07,39.47,25.94,39.47c15.54,0,25.05-6.54,37.14-22.97V299.36
				h61.91v208.91h-50.51l-4.45-28.98h-1.53c-17.43,20.81-37.1,34.03-65.6,34.03C1281.57,513.32,1262.2,481.25,1262.2,429.04
				L1262.2,429.04L1262.2,429.04z"/>
			<path class="st1" d="M1492.61,403.89c0-68.33,42.65-109.59,86.65-109.59c23.04,0,37.1,8.57,51.23,21.79l-2.23-31.66v-71.18h61.91
				v295h-50.51l-4.45-20.72h-1.53c-14.75,14.75-35.42,25.77-55.59,25.77C1526.14,513.32,1492.61,472.1,1492.61,403.89
				L1492.61,403.89L1492.61,403.89z M1628.23,443.96v-85.78c-10.94-9.8-23.23-13.22-34.56-13.22c-20.05,0-37.62,18.51-37.62,58.24
				s14.15,59.49,38.13,59.49C1607.32,462.66,1617.98,457.66,1628.23,443.96L1628.23,443.96L1628.23,443.96z"/>
			<path class="st1" d="M1732.48,403.89c0-67.78,48.35-109.59,98.55-109.59c59.51,0,88.97,43.25,88.97,100.27
				c0,11.16-1.39,22.3-2.59,27.35h-124.96c5.56,30.3,26.3,44.21,54.17,44.21c15.81,0,30.01-4.81,45.17-13.67l20.48,37.31
				c-21.41,14.82-49.36,23.54-74.12,23.54C1778.61,513.32,1732.48,473.03,1732.48,403.89L1732.48,403.89L1732.48,403.89z
				 M1867.12,381c0-22.97-9.99-39.52-34.7-39.52c-19.57,0-36.45,13.12-40.67,39.52H1867.12z"/>
		</g>
		<g>
			<path class="st2" d="M801.9,211.51V160.5h7.16v51.01H801.9z M805.4,167.3v-6.8h28.59v6.8H805.4z M805.4,190.03v-6.8h24.74v6.8
				H805.4z"/>
			<path class="st2" d="M853.01,212.02c-4.48,0-7.81-0.93-10.06-2.78c-2.25-1.84-3.35-4.67-3.35-8.48c0-3.81,1.03-6.32,3.07-8.12
				c2.04-1.8,5.13-2.68,9.22-2.68h10.35l0.5,5.75h-10.8c-1.84,0-3.23,0.41-4.17,1.25s-1.41,2.11-1.41,3.81
				c0,1.84,0.62,3.21,1.87,4.1c1.25,0.89,3.09,1.34,5.58,1.34c2.71,0,4.74-0.29,6.11-0.89c1.37-0.6,2.04-1.48,2.04-2.73l0.74,5.13
				c-0.62,0.98-1.41,1.8-2.35,2.42s-2.01,1.1-3.21,1.41c-1.2,0.31-2.56,0.48-4.1,0.48L853.01,212.02z M861.92,211.51v-23.09
				c0-2.39-0.65-4.24-1.92-5.56c-1.27-1.32-3.09-1.99-5.41-1.99c-1.44,0-2.83,0.22-4.22,0.65c-1.39,0.43-2.63,1.05-3.74,1.87
				l-5.22-3.57c1.39-1.65,3.19-2.95,5.46-3.88c2.25-0.93,4.77-1.39,7.52-1.39c4.55,0,8.09,1.17,10.59,3.54
				c2.49,2.37,3.76,5.7,3.76,9.99v23.4h-6.8L861.92,211.51z"/>
			<path class="st2" d="M879.59,211.51v-36.43h7.16v36.43H879.59z M899.64,183.71c-0.62-0.77-1.44-1.37-2.39-1.75
				c-0.96-0.38-2.06-0.6-3.33-0.6c-2.28,0-4.02,0.62-5.29,1.87c-1.27,1.25-1.87,2.99-1.87,5.22l-0.74-7.02
				c1.1-2.16,2.54-3.83,4.33-5.05c1.8-1.22,3.76-1.82,5.92-1.82c1.65,0,3.16,0.24,4.5,0.72s2.51,1.2,3.52,2.13l-4.67,6.32
				L899.64,183.71z"/>
			<path class="st2" d="M910.27,211.51v-36.43h7.16v36.43H910.27z M932.02,211.51v-22.06c0-2.56-0.62-4.55-1.89-5.96
				c-1.27-1.41-3.04-2.11-5.36-2.11s-4.14,0.62-5.41,1.87c-1.27,1.25-1.92,2.99-1.92,5.22l-0.74-7.02c1.13-2.2,2.59-3.9,4.41-5.08
				c1.82-1.2,3.81-1.8,6.01-1.8c3.83,0,6.8,1.29,8.91,3.88c2.11,2.59,3.16,6.23,3.16,10.97v22.1h-7.16L932.02,211.51z
				 M953.76,211.51v-22.06c0-2.56-0.67-4.55-1.99-5.96c-1.32-1.41-3.19-2.11-5.63-2.11c-2.23,0-3.95,0.67-5.15,2.04
				c-1.2,1.37-1.82,3.28-1.82,5.75l-1.44-7.02c1.17-2.44,2.68-4.31,4.55-5.6c1.87-1.29,3.95-1.96,6.2-1.96
				c3.95,0,7.02,1.29,9.17,3.88c2.16,2.59,3.26,6.23,3.26,10.97v22.1h-7.16L953.76,211.51z"/>
			<path class="st2" d="M983.43,212.02c-4.48,0-7.81-0.93-10.06-2.78c-2.25-1.84-3.35-4.67-3.35-8.48c0-3.81,1.03-6.32,3.07-8.12
				c2.04-1.8,5.13-2.68,9.22-2.68h10.35l0.5,5.75h-10.8c-1.84,0-3.23,0.41-4.17,1.25c-0.93,0.84-1.41,2.11-1.41,3.81
				c0,1.84,0.62,3.21,1.87,4.1c1.25,0.89,3.09,1.34,5.58,1.34c2.71,0,4.74-0.29,6.11-0.89c1.37-0.6,2.04-1.48,2.04-2.73l0.74,5.13
				c-0.62,0.98-1.41,1.8-2.35,2.42s-2.01,1.1-3.21,1.41c-1.2,0.31-2.56,0.48-4.1,0.48L983.43,212.02z M992.34,211.51v-23.09
				c0-2.39-0.65-4.24-1.92-5.56s-3.09-1.99-5.41-1.99c-1.44,0-2.83,0.22-4.22,0.65c-1.39,0.43-2.63,1.05-3.74,1.87l-5.22-3.57
				c1.39-1.65,3.19-2.95,5.46-3.88c2.25-0.93,4.77-1.39,7.52-1.39c4.55,0,8.09,1.17,10.59,3.54c2.49,2.37,3.76,5.7,3.76,9.99v23.4
				h-6.8L992.34,211.51z M985.71,168.07l-4.5-3.62L991.24,152l5.15,4.29l-10.71,11.78H985.71z"/>
			<path class="st2" d="M1024.72,212.02c-5.01,0-8.89-1.39-11.64-4.14c-2.75-2.75-4.12-6.66-4.12-11.69v-5.99
				c0-4.98,1.37-8.84,4.12-11.57c2.75-2.73,6.63-4.1,11.64-4.1c2.85,0,5.44,0.5,7.71,1.51c2.28,1.01,4.12,2.44,5.48,4.31l-5.15,4.62
				c-1.01-1.17-2.2-2.06-3.57-2.71s-2.83-0.96-4.36-0.96c-2.75,0-4.91,0.77-6.42,2.32s-2.28,3.71-2.28,6.51v5.99
				c0,2.87,0.77,5.1,2.28,6.66c1.51,1.56,3.66,2.35,6.42,2.35c1.51,0,2.97-0.34,4.36-1.01c1.39-0.67,2.56-1.63,3.57-2.87l5.15,4.98
				c-1.37,1.82-3.19,3.23-5.48,4.24c-2.3,1.01-4.86,1.48-7.71,1.48V212.02z"/>
			<path class="st2" d="M1045.82,167.64v-7.16h7.16v7.16H1045.82z M1045.82,211.51v-36.43h7.16v36.43H1045.82z"/>
			<path class="st2" d="M1075.49,212.02c-4.48,0-7.81-0.93-10.06-2.78c-2.25-1.84-3.35-4.67-3.35-8.48c0-3.81,1.03-6.32,3.07-8.12
				c2.04-1.8,5.13-2.68,9.22-2.68h10.35l0.5,5.75h-10.8c-1.84,0-3.23,0.41-4.17,1.25c-0.93,0.84-1.41,2.11-1.41,3.81
				c0,1.84,0.62,3.21,1.87,4.1s3.09,1.34,5.58,1.34c2.71,0,4.74-0.29,6.11-0.89c1.37-0.6,2.04-1.48,2.04-2.73l0.74,5.13
				c-0.62,0.98-1.41,1.8-2.35,2.42c-0.93,0.62-2.01,1.1-3.21,1.41c-1.2,0.31-2.56,0.48-4.1,0.48L1075.49,212.02z M1084.4,211.51
				v-23.09c0-2.39-0.65-4.24-1.92-5.56c-1.27-1.32-3.09-1.99-5.41-1.99c-1.44,0-2.83,0.22-4.22,0.65c-1.39,0.43-2.63,1.05-3.74,1.87
				l-5.22-3.57c1.39-1.65,3.19-2.95,5.46-3.88c2.25-0.93,4.77-1.39,7.52-1.39c4.55,0,8.09,1.17,10.59,3.54
				c2.49,2.37,3.76,5.7,3.76,9.99v23.4h-6.8L1084.4,211.51z"/>
		</g>
		<g>
			<path d="M469.81,741.78H260.2c-16.57,0-30-13.43-30-30V41.77c0-16.57,13.43-30,30-30h209.61c16.57,0,30,13.43,30,30v670.02
				C499.81,728.35,486.38,741.78,469.81,741.78z"/>
			<path d="M0,481.58V271.97c0-16.57,13.43-30,30-30h670.02c16.57,0,30,13.43,30,30v209.61c0,16.57-13.43,30-30,30H30
				C13.43,511.58,0,498.15,0,481.58z"/>
			<path class="st0" d="M487.38,730.23H277.77c-16.57,0-30-13.43-30-30V30.22c0-16.57,13.43-30,30-30h209.61c16.57,0,30,13.43,30,30
				v670.02C517.38,716.8,503.95,730.23,487.38,730.23z"/>
			<path class="st0" d="M17.57,470.03V260.42c0-16.57,13.43-30,30-30h670.02c16.57,0,30,13.43,30,30v209.61c0,16.57-13.43,30-30,30
				H47.57C31,500.03,17.57,486.6,17.57,470.03z"/>
		</g>
	</g>
</g>
</svg>
