<?xml version="1.0" encoding="utf-8"?>
<!-- Generator: Adobe Illustrator 28.3.0, SVG Export Plug-In . SVG Version: 6.00 Build 0)  -->
<svg version="1.1" id="Camada_1" xmlns="http://www.w3.org/2000/svg" xmlns:xlink="http://www.w3.org/1999/xlink" x="0px" y="0px"
	 viewBox="0 0 1920 761" style="enable-background:new 0 0 1920 761;" xml:space="preserve">
<style type="text/css">
	.st0{fill:#5C7BE1;}
	.st1{fill:#FFFFFF;}
	.st2{fill:#313131;}
</style>
<path d="M1356.44,276.64L1356.44,276.64c-0.19-0.21,1.64-1.45,2.32-2.43c7.18-10.44,4.05-7,8.63-11.51
	c1.98-1.93,5.23-5.58,5.17-5.64l4.36-2.73c0,0,0.34-0.21,0.53-0.09l1.8,1.22c3.53,2.37,7.33,4.36,11.33,5.93l2.07,0.83
	c21.48,5.25,36.74,3,52.8-5.67l9.13-5.7c13.31-10.12,25.41-27.51,26.65-45.84l0.53-3.56c1.05-7.18,1.02-14.45-0.31-21.6
	c0-0.09-0.03-0.15-0.03-0.24c-0.56-2.88-1.33-5.73-2.26-8.49l-3.06-9.05l-5.32,4.98c-2.38,1.63-11.73,6.38-14.58,6.94
	c-0.31,0.06-5.82,0.18-10.18,1.19c-1.42,0.33-2.88,0.59-4.33,0.74l-28.38,2.58c-0.68,0.06-1.39,0.15-2.07,0.27
	c-11.85,2.08-20.3,4.57-30.11,11.19c-4.36,2.94-10.55,9.02-12.69,13.74l0.12-0.83l-2.6,4.51c-5.2,18.28-2.85,13.95-1.33,26.85
	l0.4,1.66l13.15-7.8c6.44-3.2,13.18-5.85,20.15-7.86l18.76-4.78l17.86-5.13c5.32-1.96,12.22-5.7,16.65-9.14
	c1.15-0.89,2.23-1.87,3.25-2.91l8.05-9.11l-1.98,4.81c-8.39,9.88-7.33,11.69-29.62,23.53l-21.76,8.13l-16.37,6.41
	c-4.02,1.34-7.95,2.97-11.73,4.93c-5.42,2.82-10.58,6.11-15.38,9.85c-1.61,1.25-7.24,5.93-9.56,8.25l0,0
	c-2.07,2.11-3.87,4.39-5.57,6.8l-2.01,1.84l-1.95,1.42c-0.8,5.79,4.67,9.76,9.13,11.48h0.37L1356.44,276.64z"/>
<path class="st0" d="M1377.16,267.74L1377.16,267.74c-0.14-0.17,1.24-1.21,1.71-2c5.19-8.57,2.9-5.73,6.28-9.47
	c1.45-1.62,3.85-4.62,3.81-4.66l3.28-2.31c0,0,0.26-0.17,0.4-0.1l1.43,0.93c2.78,1.81,5.76,3.28,8.88,4.45l1.62,0.59
	c16.66,3.59,28.32,1.36,40.41-6.07l6.83-4.81c9.92-8.5,18.7-22.75,19.11-37.5l0.29-2.88c0.59-5.78,0.36-11.61-0.88-17.3
	c-0.02-0.07-0.02-0.12-0.05-0.19c-0.5-2.28-1.19-4.55-2-6.73l-2.62-7.19l-3.93,4.16c-1.76,1.38-8.8,5.45-10.99,6
	c-0.21,0.05-4.47,0.31-7.81,1.26c-1.09,0.31-2.19,0.57-3.31,0.71l-21.73,2.88c-0.52,0.07-1.07,0.17-1.59,0.29
	c-9.07,2-15.47,4.24-22.8,9.83c-3.26,2.5-7.85,7.54-9.33,11.35l0.07-0.67l-1.88,3.69c-3.45,14.78-1.76,11.26-0.21,21.56l0.36,1.31
	l9.88-6.62c4.85-2.76,9.95-5.07,15.23-6.88l14.28-4.35l13.56-4.62c4.05-1.71,9.21-4.93,12.52-7.78c0.86-0.74,1.64-1.57,2.4-2.43
	l5.93-7.54l-1.38,3.9c-6.16,8.16-5.28,9.57-22.06,19.7l-16.49,7.14l-12.4,5.59c-3.07,1.19-6.04,2.59-8.85,4.28
	c-4.09,2.4-7.95,5.21-11.52,8.33c-1.19,1.05-5.4,4.95-7.09,6.88l0,0c-1.55,1.74-2.83,3.64-4.09,5.59l-1.5,1.55l-1.45,1.21
	c-0.45,4.66,3.88,7.69,7.38,8.92h0.31L1377.16,267.74z"/>
<g>
	<g>
		<path class="st1" d="M802.75,480.6l35.41-42.31c19.39,16.87,44.55,28.48,66.99,28.48c25.72,0,38.34-10.14,38.34-26.32
			c0-17.16-15.49-22.68-39.34-32.48l-35.43-15.11c-28.25-11.49-55.04-34.69-55.04-74.34c0-45.19,40.36-81.26,97.14-81.26
			c31.41,0,64.25,12.37,87.71,35.74l-31.13,38.86c-17.97-13.78-35.05-21.37-56.61-21.37s-34.79,8.85-34.79,24.44
			c0,16.73,17.85,22.8,41.64,32.27l34.74,14.09c33.29,13.47,54.09,35.65,54.09,74.17c0,45.28-37.76,84.52-102.73,84.52
			C868.26,520.03,830.57,506.58,802.75,480.6L802.75,480.6L802.75,480.6z"/>
		<path class="st1" d="M1038.33,457.44c0-43.74,34.79-67.41,116.89-76.08c-1.24-18.16-10.28-30.01-32.81-30.01
			c-17.42,0-34.79,7.33-54.92,18.75l-21.87-40.38c26.34-16.11,56.02-27.32,88.66-27.32c53.07,0,82.45,30.32,82.45,93.92v118.67
			h-50.19l-4.43-21.25h-1.52c-17.47,15.35-37.05,26.27-60.39,26.27C1062.34,520.03,1038.33,492.4,1038.33,457.44L1038.33,457.44
			L1038.33,457.44z M1155.22,454.71v-36.27c-43.74,5.9-58.01,18.39-58.01,34.1c0,13.37,9.21,19.92,23.82,19.92
			S1144.29,465.58,1155.22,454.71z"/>
		<path class="st1" d="M1266.39,436.29V307.43h61.51v120.98c0,29.86,8.02,39.22,25.77,39.22c15.44,0,24.89-6.5,36.91-22.82V307.43
			h61.51v207.57h-50.19l-4.43-28.79h-1.52c-17.32,20.68-36.86,33.81-65.18,33.81C1285.64,520.03,1266.39,488.17,1266.39,436.29
			L1266.39,436.29L1266.39,436.29z"/>
		<path class="st1" d="M1495.33,411.3c0-67.89,42.38-108.89,86.09-108.89c22.89,0,36.86,8.52,50.9,21.65l-2.21-31.46v-70.72h61.51
			v293.12h-50.19l-4.43-20.58h-1.52c-14.66,14.66-35.19,25.6-55.23,25.6C1528.65,520.03,1495.33,479.08,1495.33,411.3L1495.33,411.3
			L1495.33,411.3z M1630.09,451.12v-85.24c-10.87-9.73-23.08-13.14-34.34-13.14c-19.92,0-37.38,18.39-37.38,57.87
			s14.06,59.11,37.88,59.11C1609.32,469.7,1619.91,464.73,1630.09,451.12L1630.09,451.12L1630.09,451.12z"/>
		<path class="st1" d="M1733.68,411.3c0-67.34,48.04-108.89,97.92-108.89c59.13,0,88.4,42.98,88.4,99.63
			c0,11.09-1.38,22.15-2.57,27.18h-124.17c5.52,30.1,26.13,43.93,53.83,43.93c15.71,0,29.82-4.78,44.88-13.59l20.35,37.07
			c-21.27,14.73-49.04,23.39-73.65,23.39C1779.51,520.03,1733.68,480,1733.68,411.3L1733.68,411.3L1733.68,411.3z M1867.46,388.56
			c0-22.82-9.92-39.26-34.48-39.26c-19.44,0-36.22,13.04-40.41,39.26H1867.46z"/>
	</g>
	<g>
		<path class="st2" d="M809.03,220.15v-50.69h7.11v50.69H809.03z M812.51,176.22v-6.76h28.41v6.76H812.51z M812.51,198.81v-6.76
			h24.58v6.76H812.51z"/>
		<path class="st2" d="M859.81,220.65c-4.45,0-7.76-0.93-9.99-2.76c-2.24-1.83-3.33-4.64-3.33-8.42s1.02-6.28,3.05-8.07
			c2.02-1.78,5.09-2.67,9.16-2.67h10.28l0.5,5.71h-10.73c-1.83,0-3.21,0.4-4.14,1.24c-0.93,0.83-1.4,2.09-1.4,3.78
			c0,1.83,0.62,3.19,1.86,4.07c1.24,0.88,3.07,1.33,5.54,1.33c2.69,0,4.71-0.29,6.07-0.88c1.36-0.59,2.02-1.48,2.02-2.71l0.74,5.09
			c-0.62,0.98-1.4,1.78-2.33,2.4c-0.93,0.62-2,1.09-3.19,1.4c-1.19,0.31-2.55,0.48-4.07,0.48L859.81,220.65z M868.66,220.15v-22.94
			c0-2.38-0.64-4.21-1.9-5.52c-1.26-1.31-3.07-1.98-5.38-1.98c-1.43,0-2.81,0.21-4.19,0.64c-1.38,0.43-2.62,1.05-3.71,1.86
			l-5.19-3.55c1.38-1.64,3.16-2.93,5.43-3.85c2.24-0.93,4.74-1.38,7.47-1.38c4.52,0,8.04,1.17,10.52,3.52
			c2.47,2.36,3.74,5.66,3.74,9.92v23.25h-6.76L868.66,220.15z"/>
		<path class="st2" d="M886.23,220.15v-36.19h7.12v36.19H886.23z M906.14,192.52c-0.62-0.76-1.43-1.36-2.38-1.74
			c-0.95-0.38-2.05-0.59-3.31-0.59c-2.26,0-4,0.62-5.26,1.86c-1.26,1.24-1.86,2.97-1.86,5.19l-0.74-6.97
			c1.09-2.14,2.52-3.81,4.31-5.02c1.78-1.21,3.74-1.81,5.88-1.81c1.64,0,3.14,0.24,4.47,0.71c1.33,0.48,2.5,1.19,3.5,2.12
			l-4.64,6.28L906.14,192.52z"/>
		<path class="st2" d="M916.71,220.15v-36.19h7.12v36.19H916.71z M938.32,220.15v-21.92c0-2.55-0.62-4.52-1.88-5.93
			c-1.26-1.4-3.02-2.09-5.33-2.09s-4.12,0.62-5.38,1.86c-1.26,1.24-1.9,2.97-1.9,5.19l-0.74-6.97c1.12-2.19,2.57-3.88,4.38-5.04
			c1.81-1.19,3.78-1.78,5.97-1.78c3.81,0,6.76,1.29,8.85,3.85c2.09,2.57,3.14,6.19,3.14,10.9v21.96h-7.12L938.32,220.15z
			 M959.92,220.15v-21.92c0-2.55-0.67-4.52-1.98-5.93s-3.16-2.09-5.59-2.09c-2.21,0-3.93,0.67-5.12,2.02
			c-1.19,1.36-1.81,3.26-1.81,5.71l-1.43-6.97c1.17-2.43,2.67-4.28,4.52-5.57c1.86-1.29,3.93-1.95,6.16-1.95
			c3.93,0,6.97,1.29,9.11,3.85c2.14,2.57,3.24,6.19,3.24,10.9v21.96h-7.11L959.92,220.15z"/>
		<path class="st2" d="M989.41,220.65c-4.45,0-7.76-0.93-9.99-2.76c-2.24-1.83-3.33-4.64-3.33-8.42s1.02-6.28,3.05-8.07
			s5.09-2.67,9.16-2.67h10.28l0.5,5.71h-10.73c-1.83,0-3.21,0.4-4.14,1.24c-0.93,0.83-1.4,2.09-1.4,3.78c0,1.83,0.62,3.19,1.86,4.07
			c1.24,0.88,3.07,1.33,5.54,1.33c2.69,0,4.71-0.29,6.07-0.88c1.36-0.59,2.02-1.48,2.02-2.71l0.74,5.09
			c-0.62,0.98-1.4,1.78-2.33,2.4c-0.93,0.62-2,1.09-3.19,1.4c-1.19,0.31-2.55,0.48-4.07,0.48L989.41,220.65z M998.26,220.15v-22.94
			c0-2.38-0.64-4.21-1.9-5.52c-1.26-1.31-3.07-1.98-5.38-1.98c-1.43,0-2.81,0.21-4.19,0.64c-1.38,0.43-2.62,1.05-3.71,1.86
			l-5.19-3.55c1.38-1.64,3.16-2.93,5.43-3.85c2.24-0.93,4.74-1.38,7.47-1.38c4.52,0,8.04,1.17,10.52,3.52s3.74,5.66,3.74,9.92v23.25
			h-6.76L998.26,220.15z M991.67,176.98l-4.47-3.59l9.97-12.37l5.12,4.26l-10.64,11.71H991.67z"/>
		<path class="st2" d="M1030.43,220.65c-4.97,0-8.83-1.38-11.56-4.12s-4.09-6.62-4.09-11.61v-5.95c0-4.95,1.36-8.78,4.09-11.49
			c2.74-2.71,6.59-4.07,11.56-4.07c2.83,0,5.4,0.5,7.66,1.5s4.09,2.43,5.45,4.28l-5.12,4.59c-1-1.17-2.19-2.05-3.55-2.69
			c-1.36-0.64-2.81-0.95-4.33-0.95c-2.74,0-4.88,0.76-6.38,2.31c-1.5,1.55-2.26,3.69-2.26,6.47v5.95c0,2.86,0.76,5.07,2.26,6.62
			c1.5,1.55,3.64,2.33,6.38,2.33c1.5,0,2.95-0.33,4.33-1c1.38-0.67,2.55-1.62,3.55-2.86l5.12,4.95c-1.36,1.81-3.16,3.21-5.45,4.21
			c-2.28,1-4.83,1.48-7.66,1.48V220.65z"/>
		<path class="st2" d="M1051.39,176.56v-7.12h7.12v7.12H1051.39z M1051.39,220.15v-36.19h7.12v36.19H1051.39z"/>
		<path class="st2" d="M1080.88,220.65c-4.45,0-7.76-0.93-9.99-2.76c-2.24-1.83-3.33-4.64-3.33-8.42s1.02-6.28,3.05-8.07
			c2.02-1.78,5.09-2.67,9.16-2.67h10.28l0.5,5.71h-10.73c-1.83,0-3.21,0.4-4.14,1.24c-0.93,0.83-1.4,2.09-1.4,3.78
			c0,1.83,0.62,3.19,1.86,4.07c1.24,0.88,3.07,1.33,5.54,1.33c2.69,0,4.71-0.29,6.07-0.88c1.36-0.59,2.02-1.48,2.02-2.71l0.74,5.09
			c-0.62,0.98-1.4,1.78-2.33,2.4c-0.93,0.62-2,1.09-3.19,1.4c-1.19,0.31-2.55,0.48-4.07,0.48L1080.88,220.65z M1089.73,220.15
			v-22.94c0-2.38-0.64-4.21-1.9-5.52c-1.26-1.31-3.07-1.98-5.38-1.98c-1.43,0-2.81,0.21-4.19,0.64c-1.38,0.43-2.62,1.05-3.71,1.86
			l-5.19-3.55c1.38-1.64,3.16-2.93,5.43-3.85c2.24-0.93,4.74-1.38,7.47-1.38c4.52,0,8.04,1.17,10.52,3.52s3.74,5.66,3.74,9.92v23.25
			h-6.76L1089.73,220.15z"/>
	</g>
	<g>
		<path d="M505.41,761.74H258.44c-16.57,0-30-13.43-30-30V30.26c0-16.57,13.43-30,30-30h246.97c16.57,0,30,13.43,30,30v701.48
			C535.41,748.31,521.98,761.74,505.41,761.74z"/>
		<path d="M0,503.3V261.08c0-16.57,13.43-30,30-30h708.61c16.57,0,30,13.43,30,30V503.3c0,16.57-13.43,30-30,30H30
			C13.43,533.3,0,519.86,0,503.3z"/>
		<path class="st0" d="M496.32,735.56H288.43c-16.57,0-30-13.43-30-30V40.2c0-16.57,13.43-30,30-30h207.89c16.57,0,30,13.43,30,30
			v665.36C526.32,722.13,512.89,735.56,496.32,735.56z"/>
		<path class="st0" d="M29.7,476.83V268.94c0-16.57,13.43-30,30-30h665.36c16.57,0,30,13.43,30,30v207.89c0,16.57-13.43,30-30,30
			H59.7C43.13,506.83,29.7,493.4,29.7,476.83z"/>
	</g>
</g>
</svg>
