<?xml version="1.0" encoding="utf-8"?>
<!-- Generator: Adobe Illustrator 28.3.0, SVG Export Plug-In . SVG Version: 6.00 Build 0)  -->
<svg version="1.1" id="Camada_1" xmlns="http://www.w3.org/2000/svg" xmlns:xlink="http://www.w3.org/1999/xlink" x="0px" y="0px"
	 viewBox="0 0 100 100" style="enable-background:new 0 0 100 100;" xml:space="preserve">
<path d="M92.22,100l-35-35c-2.78,2.22-5.97,3.98-9.58,5.28c-3.61,1.3-7.45,1.94-11.53,1.94c-10.09,0-18.63-3.5-25.62-10.49
	S0,46.2,0,36.11c0-10.09,3.5-18.63,10.49-25.62S26.02,0,36.11,0C46.2,0,54.75,3.5,61.74,10.49s10.49,15.53,10.49,25.62
	c0,4.07-0.65,7.92-1.94,11.53c-1.3,3.61-3.06,6.81-5.28,9.58l35,35L92.22,100z M36.11,61.11c6.94,0,12.85-2.43,17.71-7.29
	s7.29-10.76,7.29-17.71s-2.43-12.85-7.29-17.71s-10.76-7.29-17.71-7.29S23.26,13.54,18.4,18.4s-7.29,10.76-7.29,17.71
	s2.43,12.85,7.29,17.71S29.17,61.11,36.11,61.11z"/>
</svg>
