<?xml version="1.0" encoding="utf-8"?>
<!-- Generator: Adobe Illustrator 28.3.0, SVG Export Plug-In . SVG Version: 6.00 Build 0)  -->
<svg version="1.1" id="Camada_1" xmlns="http://www.w3.org/2000/svg" xmlns:xlink="http://www.w3.org/1999/xlink" x="0px" y="0px"
	 viewBox="0 0 100 100" style="enable-background:new 0 0 100 100;" xml:space="preserve">
<path d="M19.25,75.5c4.25-3.25,9-5.81,14.25-7.69S44.25,65,50,65s11.25,0.94,16.5,2.81s10,4.44,14.25,7.69
	c2.92-3.42,5.19-7.29,6.81-11.63S90,54.92,90,50c0-11.08-3.9-20.52-11.69-28.31S61.08,10,50,10c-11.08,0-20.52,3.9-28.31,11.69
	S10,38.92,10,50c0,4.92,0.81,9.54,2.44,13.87S16.33,72.08,19.25,75.5z M50,55c-4.92,0-9.06-1.69-12.44-5.06
	c-3.38-3.38-5.06-7.52-5.06-12.44s1.69-9.06,5.06-12.44S45.08,20,50,20c4.92,0,9.06,1.69,12.44,5.06s5.06,7.52,5.06,12.44
	s-1.69,9.06-5.06,12.44C59.06,53.31,54.92,55,50,55z M50,100c-6.92,0-13.42-1.31-19.5-3.94s-11.38-6.19-15.88-10.69
	S6.56,75.58,3.94,69.5S0,56.92,0,50c0-6.92,1.31-13.42,3.94-19.5s6.19-11.38,10.69-15.88S24.42,6.56,30.5,3.94S43.08,0,50,0
	c6.92,0,13.42,1.31,19.5,3.94s11.38,6.19,15.88,10.69s8.06,9.79,10.69,15.88C98.69,36.58,100,43.08,100,50
	c0,6.92-1.31,13.42-3.94,19.5c-2.62,6.08-6.19,11.38-10.69,15.88s-9.79,8.06-15.88,10.69S56.92,100,50,100z"/>
</svg>
