<?xml version="1.0" encoding="utf-8"?>
<!-- Generator: Adobe Illustrator 28.3.0, SVG Export Plug-In . SVG Version: 6.00 Build 0)  -->
<svg version="1.1" xmlns="http://www.w3.org/2000/svg" xmlns:xlink="http://www.w3.org/1999/xlink" x="0px" y="0px"
	 viewBox="0 0 2237 2237" style="enable-background:new 0 0 2237 2237;" xml:space="preserve">
<style type="text/css">
	.st0{fill-rule:evenodd;clip-rule:evenodd;fill:#1F1F1F;}
</style>
<g id="Bg">
</g>
<g id="Layer_1_17_">
	<path class="st0" d="M1630.02,1369.12c-28.2-15.44-166.79-90.24-192.8-100.82c-25.98-10.55-44.95-16.04-65.2,12.01
		c-20.23,27.96-77.74,90.63-95.15,109.18c-33.09,35.08-97.5-11.09-133.59-31.16c-41.51-23.12-95.85-58.7-154.67-115.24
		c-82.53-79.36-136.67-175.57-152.37-204.93c-23.99-44.89,60-97.29,85.78-145.28c1.43-2.66,2.92-5.45,4.54-8.42
		c10.28-18.82,6.15-35.77-0.53-50.42c-6.65-14.59-58.8-158.17-80.59-216.57c-27.66-74.13-149.92-68.21-195.78-21.76
		c-27.4,27.76-104.22,94.47-109.52,235.88c-5.29,141.32,92.52,281.8,106.16,301.48c13.66,19.72,186.78,326.15,474.51,452.16
		c170.21,74.51,305.97,143.57,469.96,32.12c32.3-21.95,60.03-48.81,71.19-76.68c26.46-66.17,28.58-123.69,21.85-135.94
		C1677.07,1392.5,1658.22,1384.54,1630.02,1369.12z"/>
	<g>
		<path class="st0" d="M1902.53,325.09C1693.18,115.57,1414.77,0.12,1118.14,0C506.97,0,9.54,497.23,9.29,1108.42
			c-0.07,195.37,50.99,386.07,148.01,554.17L0,2237l587.81-154.15c161.97,88.3,344.3,134.84,529.88,134.92h0.45c0.04,0-0.03,0,0,0
			c611.13,0,1108.59-497.29,1108.85-1108.48C2227.1,813.12,2111.88,534.61,1902.53,325.09L1902.53,325.09z M1118.15,2030.56
			L1118.15,2030.56h-0.37c-165.37-0.06-327.58-44.48-469.08-128.42l-33.66-19.97l-348.81,91.47l93.1-339.98l-21.93-34.85
			c-92.25-146.7-140.97-316.25-140.9-490.32c0.2-507.99,413.64-921.27,922-921.27c246.17,0.1,477.57,96.06,651.57,270.2
			c174.01,174.15,269.79,405.64,269.69,651.81C2039.57,1617.24,1626.13,2030.56,1118.15,2030.56z"/>
	</g>
</g>
</svg>
